# xmcd
#
# Track frame offsets:
#	150
#	23279
#	40128
#	55924
#	74734
#	91266
#	108219
#	124885
#	149746
#	157328
#	177150
#	196637
#	212606
#	230011
#	246890
#	269863
#
# Disc length: 3820 seconds
#
# Revision: 1
# Processed by: cddbd v1.5.2PL0 Copyright (c) Steve Scherf et al.
# Submitted via: EZCDAudioConverter 5.4.0.1
#
DISCID=ed0eea10
DTITLE=Aaron Watson - Vaquero
DYEAR=2017
DGENRE=
TTITLE0=Texas Lullaby
TTITLE1=Take You Home Tonight
TTITLE2=These Old Boots Have Roots
TTITLE3=Be My Girl
TTITLE4=They Don't Make Em Like They Used To
TTITLE5=Vaquero
TTITLE6=Outta Style
TTITLE7=Run Wild Horses
TTITLE8=Mariano's Dream
TTITLE9=Clear Isabel
TTITLE10=Big Love in a Small Town
TTITLE11=One Two Step at a Time
TTITLE12=Amen Amigo
TTITLE13=The Arrow
TTITLE14=Rolling Stone
TTITLE15=Diamonds and Daughters
EXTD=
EXTT0=
EXTT1=
EXTT2=
EXTT3=
EXTT4=
EXTT5=
EXTT6=
EXTT7=
EXTT8=
EXTT9=
EXTT10=
EXTT11=
EXTT12=
EXTT13=
EXTT14=
EXTT15=
PLAYORDER=
